<?xml version="1.0" encoding="UTF-8" standalone="no"?>
<!-- Generator: Adobe Illustrator 17.1.0, SVG Export Plug-In . SVG Version: 6.00 Build 0)  -->

<svg
   xmlns:dc="http://purl.org/dc/elements/1.1/"
   xmlns:cc="http://creativecommons.org/ns#"
   xmlns:rdf="http://www.w3.org/1999/02/22-rdf-syntax-ns#"
   xmlns:svg="http://www.w3.org/2000/svg"
   xmlns="http://www.w3.org/2000/svg"
   xmlns:sodipodi="http://sodipodi.sourceforge.net/DTD/sodipodi-0.dtd"
   xmlns:inkscape="http://www.inkscape.org/namespaces/inkscape"
   version="1.1"
   id="Layer_1"
   x="0px"
   y="0px"
   viewBox="0 0 1225.3438 434.5625"
   enable-background="new 0 0 1224 792"
   xml:space="preserve"
   inkscape:version="0.48.5 r10040"
   width="100%"
   height="100%"
   sodipodi:docname="hack-a-cola-logo.svg"><metadata
     id="metadata3391"><rdf:RDF><cc:Work
         rdf:about=""><dc:format>image/svg+xml</dc:format><dc:type
           rdf:resource="http://purl.org/dc/dcmitype/StillImage" /></cc:Work></rdf:RDF></metadata><defs
     id="defs3389" /><sodipodi:namedview
     pagecolor="#ffffff"
     bordercolor="#666666"
     borderopacity="1"
     objecttolerance="10"
     gridtolerance="10"
     guidetolerance="10"
     inkscape:pageopacity="0"
     inkscape:pageshadow="2"
     inkscape:window-width="2560"
     inkscape:window-height="1418"
     id="namedview3387"
     showgrid="false"
     fit-margin-top="0"
     fit-margin-left="0"
     fit-margin-right="0"
     fit-margin-bottom="0"
     inkscape:zoom="1.217795"
     inkscape:cx="443.45337"
     inkscape:cy="124.28592"
     inkscape:window-x="1920"
     inkscape:window-y="0"
     inkscape:window-maximized="1"
     inkscape:current-layer="Layer_1" /><g
     id="g3209"
     transform="translate(0.5,-121.4375)"><path
       d="m 724.9,399.3 c 0,0 -2.5,1.2 -3.9,0.2 -1.7,-1.5 -1.1,-4.8 0,-7 0.1,-0.1 52,-90.4 52,-90.4 h -24.5 c 0,0 -2.7,4.5 -2.9,4.8 -0.2,-0.1 -0.6,-0.8 -0.8,-1.1 -15.2,-21 -51.5,13.4 -75.4,48.8 -13.7,20.3 -20.8,41.4 -20.8,41.4 -6.3,22 2.2,26.6 7.5,28.3 16.1,4.7 35.4,-18.7 35.4,-18.7 -0.5,7.4 -2,13.5 5.8,18.4 7.3,2.6 14.8,-1.3 20.4,-5 20.3,-14.3 36.7,-36.9 49.9,-56 h -8.4 c -0.1,0 -20.8,29.8 -34.3,36.3 z m -19,-23.7 c 0,-0.1 -3.7,5.6 -3.7,5.6 -5.2,7.9 -10.4,14.8 -19,19.5 -1.2,0.4 -3.2,0.5 -4.6,-0.5 -1.6,-1.1 -2.2,-2.8 -2.1,-4.7 0.5,-6.1 6.7,-24.8 25.9,-50.6 4.8,-6.6 18.6,-24.3 22,-27.2 11.4,-10 15.9,-5.6 16.3,-2.5 -10.5,19 -23,40.8 -34.8,60.4 z"
       id="path3211"
       inkscape:connector-curvature="0"
       style="fill:#c23232" /><path
       d="m 882.1,367.8 c -2.4,-5.1 -8,-8.4 -13.9,-8 -19.4,1.8 -38.4,17.7 -48.4,40.6 -5.2,11.8 -8.1,21.5 -10,37 6,-7 18.3,-18.4 32.3,-24.6 0,0 1.9,-14.8 11.6,-28 3.7,-5.5 11,-14.3 19.3,-11.9 7.2,2.4 4.7,22.3 -4.9,41.6 -7.1,14.2 -17.9,28.4 -28.9,38.2 -9.7,8.2 -24,18.2 -36.6,10.5 -7.9,-4.7 -11.9,-14.5 -11.1,-27.1 3.8,-35.8 20.1,-66.3 43.4,-101.1 24.1,-32.3 50.6,-65.4 86.3,-83.1 7.3,-3.7 14,-4.5 19.9,-2.3 0,0 -33.5,18.4 -49.5,52.6 -4.1,8.7 -9.7,20.4 -4,30.7 3,5.4 8.3,5.8 12.5,5.5 19.6,-4.5 32.3,-22.8 42.6,-39.6 6,-12.7 11.3,-25.3 11.3,-39.4 0,-1.7 -0.1,-4 -0.2,-5.7 9.4,-5 28.6,3.8 28.6,3.8 15,5 47,29.4 57.7,34.1 5.3,-6.1 13.9,-15.3 18.8,-19.9 l -7,-4.3 c -11.3,-6.9 -23.2,-13.4 -34.9,-19.9 -26.6,-14.5 -48.3,-9.4 -59.3,-5.5 -4.3,1.6 -8.3,2.9 -8.3,2.9 -8.2,-8.9 -21.6,-8.1 -31.5,-5.7 -35.6,10.2 -68.6,35.1 -104.1,78.3 -26,33.8 -42.2,63.1 -50.8,91.9 -6.6,19.4 -8.7,48 7.5,65 13.8,14.4 32,11.3 44.9,6.1 27.9,-13.8 53.1,-43.4 65.6,-77.5 2.9,-10 6.3,-24.3 1.1,-35.2 z m 64.2,-106.9 c -3.7,42.4 -36.7,67.3 -44.8,69.3 -4.9,1 -13.4,-1.2 -5.8,-19 11.1,-24 30,-44.3 50.3,-54.8 0.5,1.8 0.5,2.9 0.3,4.5 z"
       id="path3213"
       inkscape:connector-curvature="0"
       style="fill:#c23232" /><path
       d="m 1141.9,266.2 c -17.7,10.1 -36.1,16.6 -58.4,14.3 -6.2,7 -12.2,14.1 -17.7,21.5 31.2,7.9 64.4,-9.7 82.8,-26.5 19.5,-17 29.6,-38.3 29.6,-38.3 0,0 -14.6,16.8 -36.3,29 z"
       id="path3215"
       inkscape:connector-curvature="0"
       style="fill:#c23232" /><polygon
       points="796.6,324.4 809.7,302.1 786.4,302.1 773.3,324.4 "
       id="polygon3217"
       style="fill:#c23232" /><polygon
       points="683.2,324.4 696.4,302.1 673.1,302.1 660,324.4 "
       id="polygon3219"
       style="fill:#c23232" /><path
       d="m 1095,426.9 36.2,-64.5 h -24.8 c -1.2,2.1 -3.7,6.5 -3.7,6.5 -1.1,-1.9 -4.6,-6.1 -6,-7 -6.1,-3.8 -15,-2 -21.1,1.5 -26.7,15.6 -46.2,46.5 -61.5,70.5 0,0 -16.2,26.7 -25.1,28.7 -7,0.6 -6.3,-8.9 -6,-11.1 2.7,-15.9 9,-31 15.3,-44.7 12.9,-8.9 27.6,-20.6 41,-33.5 29,-27.7 53.5,-59.2 57.1,-66.2 0,0 -3.9,0.8 -8.4,0.9 -22.3,31.1 -68,76.4 -81.9,83.1 6.1,-14.8 45.8,-85.2 79.5,-118.9 l 5.3,-5.1 c 8.2,-8 16.7,-16.2 23.3,-17.6 0.7,-0.1 1.6,0 2.4,1.6 0.3,6.2 -2,10.9 -4.7,16.1 l -3.7,7.7 c 0,0 5.3,-1 8.8,-2.1 4,-7.6 8.5,-16.1 6.9,-26.2 -0.6,-3.3 -2.9,-5.7 -6,-6.3 -10.1,-1.9 -21,5.5 -29.9,11.6 l -0.4,0.2 c -45.4,35.5 -83.7,86.8 -117.2,156.7 -2.4,1.8 -11.8,4 -13.4,3 3.3,-6.8 7.5,-16 9.6,-25.9 0.4,-2.8 0.7,-5.7 0.7,-8.6 0,-6.1 -1.5,-11.8 -6.9,-15.8 -6.4,-3.2 -14.3,-1.7 -19.7,0.7 -23.9,9.9 -41.8,34.5 -54.7,54.7 -6.9,12.8 -13.9,26.6 -15.8,42.4 -1.4,12.3 1.4,20.3 8.4,24.3 7.2,3.7 16.3,-0.1 19.9,-2 24.3,-12.8 41.2,-38.4 54.6,-61.8 0.5,-0.1 7.8,-0.3 13.3,-1.7 0.1,0 0.1,0 0.2,0.1 -0.3,1.1 -3.2,9.6 -3.2,9.6 -8.5,24.8 -12.4,41.7 -4.4,51.7 11.4,14.1 30.3,-0.5 45.7,-19.8 -3.3,23.1 8.7,26.7 17.8,25 10.5,-2.8 22.2,-14 27.6,-19.8 -1.7,6.7 -1.3,18.8 8.3,20 6.5,1.2 11.4,-2.1 17.1,-5.2 20.3,-11.1 44.7,-48.2 51,-58.4 h -8.3 c -9,13.3 -20.4,31.1 -34.8,39.6 -2.5,1.7 -6,0.3 -4.7,-3.6 3.3,-10 16.3,-30.4 16.3,-30.4 z m -194,31.2 c -1.3,-1.9 -1.7,-4.1 -1.8,-6.4 -0.2,-13.9 14.7,-38.7 25.3,-52.5 0,0 0,0 0,0 4.4,10.3 14.5,16 20.5,18.7 -7.5,16.8 -33.2,52.7 -44,40.2 z m 48.3,-47.6 c -0.7,0.5 -13.4,-3.8 -15.8,-15.5 -2.1,-10.1 4.9,-17.9 11.6,-21.9 2.9,-2.3 7.2,-3 10.4,-1.9 3,2 3.8,5.5 3.8,9.4 0,2.3 -0.3,4.8 -0.6,7 0,0 -0.1,0.4 -0.1,0.5 -2.1,7.8 -5.3,15.6 -9.3,22.4 z m 101.4,43.2 c 0,0 -2.4,2.1 -2.4,2.1 -3.4,3 -6.9,6.3 -11.2,4.7 -1.2,-0.4 -2,-2 -2.2,-3.2 -0.2,-8.7 3.7,-16.8 7.5,-24.7 l 1,-2.1 c 11,-18.3 23.7,-39.9 42.4,-54.8 3.2,-2.3 6.6,-4.2 10.2,-2.7 0.8,0.8 1.8,2.1 1.8,3.5 0,0.4 -0.4,1.6 -0.6,1.9 -5.2,8.4 -10.2,17.3 -15,25.8 -9.4,16.8 -19.2,34.2 -31.5,49.5 z"
       id="path3221"
       inkscape:connector-curvature="0"
       style="fill:#c23232" /><g
       id="g3223"><path
         d="m 638,366.6 -7.4,10.8 c -5.7,7.3 -12.7,16.5 -21.6,22.8 -31.1,22.3 -32.1,-6.4 -21.4,-28 6.7,-13.5 -7.6,-22.1 -7.6,-22.1 0,0 10.5,-17.2 22.4,-27.7 0.8,-0.7 1.6,-1.3 2.4,-2 4.9,-3.8 9.9,-6.3 14.6,-5.9 0.6,0.1 1.1,0.3 1.6,0.6 2.8,1.6 3.2,5.7 1.5,8.5 -4.4,-0.1 -8,1.2 -10.9,4.2 -5.7,6 -7.7,11.7 -5.9,17.1 6.2,12.9 26.4,-11.7 25.5,-26.7 0,-0.1 0,-0.2 0,-0.3 0,-0.1 0,-0.2 0,-0.3 -0.1,-1.5 -0.4,-2.9 -0.9,-4.1 -1.2,-3.5 -3.5,-6.6 -6.6,-8.3 -6.4,-3.8 -16.2,-2.8 -22.5,0.2 -8.5,3.2 -20.4,16.4 -28.3,25.1 l -7.6,10.4 -4,-3 71.9,-123.7 c -15.8,20.7 -40.4,24.1 -40.4,24.1 L 521.1,355 c -9.5,13.4 -21.1,27.8 -33.1,38.5 0,0 -19.5,17.9 -27.9,5 -3,-5.4 -2.1,-13.3 -0.4,-18.5 9.7,-27.6 26.4,-52.7 45.5,-67.9 5.4,-4.2 11.2,-5.4 14.1,-3.6 2.8,1.6 3.2,5.7 1.5,8.5 -4.4,-0.1 -8,1.2 -10.9,4.2 -5.7,6 -7.7,11.7 -5.9,17.1 6.2,12.9 26.3,-12.2 25.5,-27.3 -0.3,-5.4 -3.2,-10.5 -7.5,-13 -6.4,-3.8 -16.2,-2.8 -22.5,0.2 -8.5,3.2 -21.9,14.4 -29.7,23 0,0 -15.3,16.6 -22.2,26 -1.2,1.6 -4.6,6.3 -6.1,8.9 -2.2,3.1 -21.1,29.6 -33.6,35.6 0,0 -2.4,1.2 -3.8,0.2 -1.7,-1.5 -1,-4.8 0,-6.9 0.1,-0.1 51.3,-89.2 51.3,-89.2 h -24.2 c 0,0 -2.6,4.5 -2.9,4.8 -0.2,-0.1 -0.6,-0.8 -0.8,-1.1 -15,-20.7 -50.8,13.2 -74.4,48.1 -13.5,20 -20.6,40.8 -20.6,40.8 -6.2,21.7 2.2,26.2 7.4,27.9 C 356,421.1 375,398 375,398 c -0.5,7.3 -1.9,13.3 5.7,18.1 7.2,2.6 14.6,-1.3 20.1,-5 10.9,-7.7 20.6,-17.8 29.4,-28.5 -1,4.2 -1.5,8.3 -1,12.1 0.6,4.6 0.1,21.2 16.4,26.2 21.6,3.6 38.9,-15.2 54.2,-30.1 l -12.8,22 h 30.9 l 38.6,-65.4 3.6,2.8 c 0,0 10.3,6.4 4.8,18.3 0,0 -2.8,5.9 -2.8,5.9 -2.8,6.7 -5.2,16.8 -5,23.2 0.3,8.9 2.7,18.3 13.5,23.5 7.4,3.7 15.4,2.9 22.1,0.5 9.5,-3.4 21.9,-12 30.5,-21.1 3.2,-3.3 12,-14.9 25.6,-37.2 h -8.4 c -0.1,0 -1.1,1.3 -2.4,3.3 z m -248.7,1.8 c 0,-0.1 -3.6,5.5 -3.6,5.5 -5.1,7.8 -10.3,14.6 -18.7,19.2 -1.2,0.3 -3.2,0.5 -4.5,-0.5 -1.6,-1 -2.2,-2.8 -2,-4.6 0.5,-6 6.6,-24.4 25.5,-49.9 4.7,-6.5 18.4,-23.9 21.7,-26.9 11.2,-9.9 15.7,-5.5 16.1,-2.4 -10.5,18.8 -22.8,40.3 -34.5,59.6 z"
         id="path3225"
         inkscape:connector-curvature="0"
         style="fill:#c23232" /></g><path
       d="m 624.5,452.3 c -34.8,-21.2 -82.2,-26.4 -156.6,-3.8 -79.4,20.7 -110.4,32.7 -140.4,12.4 -13.7,-11.5 -22.7,-33.7 -19.7,-61.3 5.2,-42.8 42.5,-94.2 42.5,-94.2 0.2,0 0.7,-0.1 0.7,-0.1 l 0,0 c 56.5,-7.1 104,-47.7 111.8,-59.5 7.9,-11.8 18.9,-25.9 10.4,-41.7 -3.6,-5.6 -9.5,-9.5 -16.9,-10.6 -25.1,-0.8 -48.2,11.7 -69.4,25.4 -31.7,23.2 -58.9,52.2 -79.3,84.2 -4.7,0.1 -18.9,1.3 -28.7,1.5 26.1,-67.9 80,-113.2 80,-113.2 0,0 -62.5,17 -114.4,109 -71.5,-10.5 -91.1,-115 65.3,-112.4 0,0 -100.5,-36 -138,34.3 -28.1,52.8 32.9,86.2 68.7,86.7 -40.5,82.9 -94.6,123.9 -127.8,104.9 -44.5,-25.4 -24,-107.7 22.6,-96.5 12.7,3 13,13.7 8.2,21.8 -2.3,3.9 -8.2,8.9 -8.2,8.9 18.6,0 27.7,19.7 29.5,45.5 9.1,-19.9 12.6,-35.8 9.9,-51.6 -5.2,-29.4 -22.6,-41.4 -42.1,-43.9 -13,-1.7 -26.5,1.3 -40.3,12.3 -29.4,23.3 -46.5,106.8 18.8,136.7 44.9,20.6 112.2,-21.4 145.4,-89.2 4.7,-9.6 15.9,-36 20.4,-48.4 l 27.6,-1.3 c -8.1,13.3 -15,27 -20.7,41 -11.6,30.3 -21.7,73.4 -4.2,108 13.5,23.9 40.6,36.2 72.4,32.7 22.4,-2.9 49.3,-10.8 67.4,-15.6 18.1,-4.8 110.6,-39.1 142.6,16 0,0 9.7,-20 35.2,-21.1 20.9,-2.4 51.3,4.8 73.7,20.5 -7.6,-10.8 -28.8,-26.6 -46.4,-37.4 z M 355.3,297.7 c 7.1,-10.6 15,-21.4 23.8,-32.5 21.8,-25.4 42,-47.3 69.2,-56.6 20.9,-5.9 18,9.1 16.8,13.1 -3.8,12.3 -38.8,62.8 -111.4,78.9 l -0.4,0.1 c 0.7,-1 1.3,-2 2,-3 z"
       id="path3227"
       inkscape:connector-curvature="0"
       style="fill:#c23232" /></g><path
     stroke-miterlimit="10"
     d="M 587.3,267.9625"
     id="path3317"
     inkscape:connector-curvature="0"
     style="fill:#ffffff;stroke:#231f20;stroke-miterlimit:10" /><path
     stroke-miterlimit="10"
     d="M 481.5,392.7625"
     id="path3319"
     inkscape:connector-curvature="0"
     style="fill:#ffffff;stroke:#231f20;stroke-miterlimit:10" /></svg>